# This file uses centimeters as units for non-parametric coordinates.

mtllib echelle.mtl
g default
v -22.571632 70.155334 -0.112930
v 88.177139 70.155334 -0.112930
v -22.571632 85.184036 -0.112930
v 88.177139 85.184036 -0.112930
v -22.571632 85.184036 -4.334143
v 88.177139 85.184036 -4.334143
v -22.571632 70.155334 -4.334143
v 88.177139 70.155334 -4.334143
v 32.802757 84.311340 -4.428373
v 32.802757 84.311340 -0.018700
v 32.802757 69.094193 -0.018700
v 32.802757 69.094193 -4.428373
v 5.321327 85.776367 -4.428373
v 5.321327 85.776367 -0.018700
v 5.321327 68.596069 -0.018700
v 5.321327 68.596069 -4.428373
v 70.177994 83.553101 -4.428373
v 70.177994 83.553101 -0.018700
v 70.177994 68.335953 -0.018700
v 70.177994 68.335953 -4.428373
v 3.000000 0.000000 2.179628
v 0.000000 0.000000 0.000000
v -3.708202 0.000000 0.000002
v -6.708206 0.000000 2.179628
v -7.854103 0.000000 5.706341
v -6.708202 0.000000 9.233053
v -3.708202 0.000000 11.412680
v 0.000000 0.000000 11.412680
v 3.000000 0.000000 9.233053
v 4.145899 0.000000 5.706341
v 3.000000 100.000000 2.179628
v 0.000000 100.000000 0.000000
v -3.708202 100.000000 0.000002
v -6.708206 100.000000 2.179628
v -7.854103 100.000000 5.706341
v -6.708202 100.000000 9.233053
v -3.708202 100.000000 11.412680
v 0.000000 100.000000 11.412680
v 3.000000 100.000000 9.233053
v 4.145899 100.000000 5.706341
v -21.322102 27.091724 -0.112930
v 88.180542 28.076115 -0.112930
v -21.322102 46.631924 -0.112930
v 88.180542 45.647640 -0.112930
v -21.322102 46.631924 -4.334143
v 88.180542 45.647640 -4.334143
v -21.322102 27.091724 -4.334143
v 88.180542 28.076115 -4.334143
v 33.429218 43.503590 -4.428373
v 33.429218 43.503590 -0.018700
v 33.429218 28.286434 -0.018700
v 33.429218 28.286434 -4.428373
v 6.257006 44.640438 -4.428373
v 6.257006 44.640438 -0.018700
v 6.257006 28.116505 -0.018700
v 6.257006 28.116505 -4.428373
v 70.383911 43.826832 -4.428373
v 70.383911 43.826832 -0.018700
v 70.383911 26.446712 -0.018700
v 70.383911 26.446712 -4.428373
v 67.255287 0.000000 2.179628
v 64.255287 0.000000 0.000000
v 60.547085 0.000000 0.000002
v 57.547081 0.000000 2.179628
v 56.401184 0.000000 5.706341
v 57.547085 0.000000 9.233053
v 60.547085 0.000000 11.412680
v 64.255287 0.000000 11.412680
v 67.255287 0.000000 9.233053
v 68.401184 0.000000 5.706341
v 67.255287 100.000000 2.179628
v 64.255287 100.000000 0.000000
v 60.547085 100.000000 0.000002
v 57.547081 100.000000 2.179628
v 56.401184 100.000000 5.706341
v 57.547085 100.000000 9.233053
v 60.547085 100.000000 11.412680
v 64.255287 100.000000 11.412680
v 67.255287 100.000000 9.233053
v 68.401184 100.000000 5.706341
vt 0.678803 0.114067
vt 0.678239 0.003906
vt 0.704649 0.003906
vt 0.704084 0.114067
vt 0.704084 0.204077
vt 0.678803 0.204077
vt 0.492064 0.263520
vt 0.492064 0.173694
vt 0.517294 0.173694
vt 0.517294 0.263520
vt 0.491500 0.003906
vt 0.517857 0.003906
vt 0.517857 0.433089
vt 0.491500 0.433089
vt 0.709924 0.113553
vt 0.709361 0.003906
vt 0.735674 0.003906
vt 0.735112 0.113553
vt 0.548934 0.230722
vt 0.548934 0.397692
vt 0.522623 0.397692
vt 0.522623 0.230722
vt 0.522623 0.003906
vt 0.548934 0.003906
vt 0.681280 0.899868
vt 0.571190 0.899868
vt 0.571190 0.807127
vt 0.681280 0.807127
vt 0.342593 0.899868
vt 0.342593 0.807127
vt 0.174509 0.899868
vt 0.174509 0.807127
vt 0.003906 0.899868
vt 0.003906 0.807127
vt 0.003906 0.903353
vt 0.113996 0.903353
vt 0.113996 0.996094
vt 0.003906 0.996094
vt 0.342593 0.903353
vt 0.342593 0.996094
vt 0.510678 0.903353
vt 0.510678 0.996094
vt 0.681280 0.903353
vt 0.681280 0.996094
vt 0.580057 0.230720
vt 0.580057 0.397486
vt 0.553746 0.397486
vt 0.553746 0.230720
vt 0.553746 0.003906
vt 0.580057 0.003906
vt 0.003906 0.003906
vt 0.026218 0.003906
vt 0.026218 0.605579
vt 0.003906 0.605579
vt 0.048529 0.003906
vt 0.048529 0.605579
vt 0.070840 0.003906
vt 0.070840 0.605579
vt 0.093151 0.003906
vt 0.093151 0.605579
vt 0.115463 0.003906
vt 0.115463 0.605579
vt 0.137774 0.003906
vt 0.137774 0.605579
vt 0.160085 0.003906
vt 0.160085 0.605579
vt 0.182396 0.003906
vt 0.182396 0.605579
vt 0.204708 0.003906
vt 0.204708 0.605579
vt 0.227019 0.003906
vt 0.227019 0.605579
vt 0.647699 0.117812
vt 0.647115 0.003906
vt 0.674424 0.003906
vt 0.673840 0.117812
vt 0.701767 0.704610
vt 0.588348 0.704610
vt 0.588348 0.609064
vt 0.701767 0.609064
vt 0.673840 0.210882
vt 0.647699 0.210882
vt 0.460956 0.270468
vt 0.460956 0.178238
vt 0.486861 0.178238
vt 0.486861 0.270468
vt 0.741044 0.112996
vt 0.740485 0.003906
vt 0.766663 0.003906
vt 0.766104 0.112996
vt 0.003906 0.708095
vt 0.117325 0.708095
vt 0.117325 0.803641
vt 0.003906 0.803641
vt 0.642151 0.229406
vt 0.642151 0.395406
vt 0.615992 0.395406
vt 0.615992 0.229406
vt 0.352836 0.704610
vt 0.179668 0.704610
vt 0.179668 0.609064
vt 0.352836 0.609064
vt 0.611039 0.229501
vt 0.611039 0.395370
vt 0.584869 0.395370
vt 0.584869 0.229501
vt 0.352837 0.708095
vt 0.526005 0.708095
vt 0.526005 0.803641
vt 0.352837 0.803641
vt 0.701767 0.708095
vt 0.701767 0.803641
vt 0.487439 0.444575
vt 0.460377 0.444575
vt 0.003906 0.704610
vt 0.003906 0.609064
vt 0.460377 0.003906
vt 0.487439 0.003906
vt 0.615992 0.003906
vt 0.642151 0.003906
vt 0.584869 0.003906
vt 0.611039 0.003906
vt 0.232142 0.003906
vt 0.254453 0.003906
vt 0.254453 0.605579
vt 0.232142 0.605579
vt 0.276764 0.003906
vt 0.276764 0.605579
vt 0.299076 0.003906
vt 0.299076 0.605579
vt 0.321387 0.003906
vt 0.321387 0.605579
vt 0.343698 0.003906
vt 0.343698 0.605579
vt 0.366009 0.003906
vt 0.366009 0.605579
vt 0.388321 0.003906
vt 0.388321 0.605579
vt 0.410632 0.003906
vt 0.410632 0.605579
vt 0.432943 0.003906
vt 0.432943 0.605579
vt 0.455254 0.003906
vt 0.455254 0.605579
vn 0.100569 -0.994930 0.000000
vn 0.018499 -0.999829 0.000000
vn 0.018499 -0.999829 0.000000
vn 0.100569 -0.994930 0.000000
vn 0.005235 0.000000 0.999986
vn 0.001744 0.000000 0.999999
vn 0.001634 0.000000 0.999999
vn 0.005235 0.000000 0.999986
vn 1.000000 0.000000 0.000000
vn 1.000000 0.000000 0.000000
vn 1.000000 0.000000 0.000000
vn 1.000000 0.000000 0.000000
vn -1.000000 0.000000 0.000000
vn -1.000000 0.000000 0.000000
vn -1.000000 0.000000 0.000000
vn -1.000000 0.000000 0.000000
vn -0.090242 0.995920 0.000000
vn -0.015154 0.999885 0.000000
vn -0.015154 0.999885 0.000000
vn -0.090242 0.995920 0.000000
vn 0.005235 0.000000 -0.999986
vn 0.001634 0.000000 -0.999999
vn 0.001744 0.000000 -0.999999
vn 0.005235 0.000000 -0.999986
vn 0.034260 0.999413 0.000000
vn 0.016200 0.999869 0.000000
vn 0.016200 0.999869 0.000000
vn 0.034260 0.999413 0.000000
vn 0.000000 0.000000 1.000000
vn -0.001714 0.000000 0.999999
vn -0.001676 0.000000 0.999999
vn 0.000000 0.000000 1.000000
vn -0.004011 -0.999992 0.000000
vn -0.018720 -0.999825 0.000000
vn -0.018720 -0.999825 0.000000
vn -0.004011 -0.999992 0.000000
vn -0.000000 0.000000 -1.000000
vn -0.001676 0.000000 -0.999999
vn -0.001714 0.000000 -0.999999
vn -0.000000 0.000000 -1.000000
vn -0.003378 0.000000 -0.999994
vn -0.003378 0.000000 -0.999994
vn -0.021231 0.999775 0.000000
vn -0.021231 0.999775 0.000000
vn -0.003378 0.000000 0.999994
vn -0.003378 0.000000 0.999994
vn -0.055815 -0.998441 0.000000
vn -0.055815 -0.998441 0.000000
vn 0.809017 0.000000 -0.587785
vn 0.309017 0.000000 -0.951057
vn 0.309017 0.000000 -0.951057
vn 0.809017 0.000000 -0.587785
vn -0.309017 0.000000 -0.951057
vn -0.309017 0.000000 -0.951057
vn -0.809017 0.000000 -0.587785
vn -0.809017 0.000000 -0.587785
vn -1.000000 0.000000 0.000001
vn -1.000000 0.000000 0.000001
vn -0.809017 0.000000 0.587786
vn -0.809017 0.000000 0.587786
vn -0.309017 0.000000 0.951057
vn -0.309017 0.000000 0.951057
vn 0.309017 0.000000 0.951057
vn 0.309017 0.000000 0.951057
vn 0.809017 0.000000 0.587785
vn 0.809017 0.000000 0.587785
vn 1.000000 0.000000 -0.000000
vn 1.000000 0.000000 -0.000000
vn 0.091175 -0.995835 0.000000
vn -0.004612 -0.999989 0.000000
vn -0.004612 -0.999989 0.000000
vn 0.091175 -0.995835 0.000000
vn 0.005295 0.000000 0.999986
vn 0.001885 0.000000 0.999998
vn 0.001770 0.000000 0.999998
vn 0.005295 0.000000 0.999986
vn 1.000000 0.000000 0.000000
vn 1.000000 0.000000 0.000000
vn 1.000000 0.000000 0.000000
vn 1.000000 0.000000 0.000000
vn -1.000000 0.000000 0.000000
vn -1.000000 0.000000 0.000000
vn -1.000000 0.000000 0.000000
vn -1.000000 0.000000 0.000000
vn -0.101781 0.994807 0.000000
vn -0.038621 0.999254 0.000000
vn -0.038621 0.999254 0.000000
vn -0.101781 0.994807 0.000000
vn 0.005295 0.000000 -0.999986
vn 0.001770 0.000000 -0.999998
vn 0.001885 0.000000 -0.999998
vn 0.005295 0.000000 -0.999986
vn 0.012686 0.999920 0.000000
vn 0.056864 0.998382 0.000000
vn 0.056864 0.998382 0.000000
vn 0.012686 0.999920 0.000000
vn -0.000000 0.000000 1.000000
vn -0.001891 0.000000 0.999998
vn -0.001853 0.000000 0.999998
vn -0.000000 0.000000 1.000000
vn -0.026030 -0.999661 0.000000
vn 0.021632 -0.999766 0.000000
vn 0.021632 -0.999766 0.000000
vn -0.026030 -0.999661 0.000000
vn 0.000000 0.000000 -1.000000
vn -0.001853 0.000000 -0.999998
vn -0.001891 0.000000 -0.999998
vn 0.000000 0.000000 -1.000000
vn -0.003417 0.000000 -0.999994
vn -0.003417 0.000000 -0.999994
vn 0.072022 0.997403 0.000000
vn 0.072022 0.997403 0.000000
vn -0.003417 0.000000 0.999994
vn -0.003417 0.000000 0.999994
vn 0.037132 -0.999310 0.000000
vn 0.037132 -0.999310 0.000000
vn 0.809017 0.000000 -0.587785
vn 0.309017 0.000000 -0.951057
vn 0.309017 0.000000 -0.951057
vn 0.809017 0.000000 -0.587785
vn -0.309017 0.000000 -0.951057
vn -0.309017 0.000000 -0.951057
vn -0.809017 0.000000 -0.587785
vn -0.809017 0.000000 -0.587785
vn -1.000000 0.000000 0.000001
vn -1.000000 0.000000 0.000001
vn -0.809017 0.000000 0.587786
vn -0.809017 0.000000 0.587786
vn -0.309017 0.000000 0.951057
vn -0.309017 0.000000 0.951057
vn 0.309017 0.000000 0.951057
vn 0.309017 0.000000 0.951057
vn 0.809017 0.000000 0.587785
vn 0.809017 0.000000 0.587785
vn 1.000000 0.000000 0.000000
vn 1.000000 0.000000 0.000000
s 1
g echelle
usemtl initialShadingGroup
f 2/1/1 19/2/2 20/3/3 8/4/4
s 2
f 4/25/5 18/26/6 19/27/7 2/28/8
s off
f 6/5/9 4/6/10 2/1/11 8/4/12
f 5/7/13 7/8/14 1/9/15 3/10/16
s 3
f 6/15/17 17/16/18 18/17/19 4/18/20
s 4
f 8/35/21 20/36/22 17/37/23 6/38/24
s 3
f 9/19/25 13/20/26 14/21/27 10/22/28
s 2
f 10/29/29 14/31/30 15/32/31 11/30/32
s 1
f 11/45/33 15/46/34 16/47/35 12/48/36
s 4
f 12/39/37 16/41/38 13/42/39 9/40/40
f 13/42/39 16/41/38 7/43/41 5/44/42
s 3
f 14/13/27 13/14/26 5/7/43 3/10/44
s 2
f 15/32/31 14/31/30 3/33/45 1/34/46
s 1
f 16/11/35 15/12/34 1/9/47 7/8/48
s 4
f 12/39/37 9/40/40 17/37/23 20/36/22
s 3
f 9/19/25 10/22/28 18/23/19 17/24/18
s 2
f 10/29/29 11/30/32 19/27/7 18/26/6
s 1
f 11/45/33 12/48/36 20/49/3 19/50/2
s 9
f 21/51/49 22/52/50 32/53/51 31/54/52
f 22/52/50 23/55/53 33/56/54 32/53/51
f 23/55/53 24/57/55 34/58/56 33/56/54
f 24/57/55 25/59/57 35/60/58 34/58/56
f 25/59/57 26/61/59 36/62/60 35/60/58
f 26/61/59 27/63/61 37/64/62 36/62/60
f 27/63/61 28/65/63 38/66/64 37/64/62
f 28/65/63 29/67/65 39/68/66 38/66/64
f 29/67/65 30/69/67 40/70/68 39/68/66
f 30/69/67 21/71/49 31/72/52 40/70/68
s 10
f 42/73/69 59/74/70 60/75/71 48/76/72
s 11
f 44/77/73 58/78/74 59/79/75 42/80/76
s off
f 46/81/77 44/82/78 42/73/79 48/76/80
f 45/83/81 47/84/82 41/85/83 43/86/84
s 12
f 46/87/85 57/88/86 58/89/87 44/90/88
s 13
f 48/91/89 60/92/90 57/93/91 46/94/92
s 12
f 49/95/93 53/96/94 54/97/95 50/98/96
s 11
f 50/99/97 54/100/98 55/101/99 51/102/100
s 10
f 51/103/101 55/104/102 56/105/103 52/106/104
s 13
f 52/107/105 56/108/106 53/109/107 49/110/108
f 53/109/107 56/108/106 47/111/109 45/112/110
s 12
f 54/113/95 53/114/94 45/83/111 43/86/112
s 11
f 55/101/99 54/100/98 43/115/113 41/116/114
s 10
f 56/117/103 55/118/102 41/85/115 47/84/116
s 13
f 52/107/105 49/110/108 57/93/91 60/92/90
s 12
f 49/95/93 50/98/96 58/119/87 57/120/86
s 11
f 50/99/97 51/102/100 59/79/75 58/78/74
s 10
f 51/103/101 52/106/104 60/121/71 59/122/70
s 18
f 61/123/117 62/124/118 72/125/119 71/126/120
f 62/124/118 63/127/121 73/128/122 72/125/119
f 63/127/121 64/129/123 74/130/124 73/128/122
f 64/129/123 65/131/125 75/132/126 74/130/124
f 65/131/125 66/133/127 76/134/128 75/132/126
f 66/133/127 67/135/129 77/136/130 76/134/128
f 67/135/129 68/137/131 78/138/132 77/136/130
f 68/137/131 69/139/133 79/140/134 78/138/132
f 69/139/133 70/141/135 80/142/136 79/140/134
f 70/141/135 61/143/117 71/144/120 80/142/136
